<svg width="165" height="31" viewBox="0 0 165 31" fill="none" xmlns="http://www.w3.org/2000/svg">
<path fill-rule="evenodd" clip-rule="evenodd" d="M0.70092 7.8607C5.96046e-08 9.1412 0 10.6859 0 13.7753V15.8288C0 21.0948 1.19209e-07 23.728 1.58162 25.3639C3.16325 27 5.70883 27 10.8 27H16.2C21.2911 27 23.8368 27 25.4183 25.3639C27 23.728 27 21.0948 27 15.8288V13.7753C27 10.6859 27 9.1412 26.2991 7.8607C25.5982 6.5802 24.3177 5.78544 21.7566 4.19596L19.0566 2.52027C16.3493 0.84009 14.9957 0 13.5 0C12.0043 0 10.6507 0.84009 7.94344 2.52027L5.24344 4.19598C2.68238 5.78544 1.40184 6.5802 0.70092 7.8607ZM10.0529 18.0866C9.6037 17.7536 8.96958 17.8478 8.63659 18.2971C8.30361 18.7464 8.39784 19.3805 8.84708 19.7134C10.1598 20.6865 11.7653 21.2625 13.5 21.2625C15.2347 21.2625 16.8402 20.6865 18.1529 19.7134C18.6022 19.3805 18.6964 18.7464 18.3634 18.2971C18.0305 17.8478 17.3964 17.7536 16.9471 18.0866C15.9637 18.8154 14.777 19.2375 13.5 19.2375C12.223 19.2375 11.0363 18.8154 10.0529 18.0866Z" fill="white"/>
<text fill="white" xml:space="preserve" style="white-space: pre" font-family="Inter" font-size="26" font-weight="bold" letter-spacing="0em"><tspan x="34" y="24.9545">StayEase</tspan></text>
</svg>
